<mxfile host="app.diagrams.net" modified="2021-05-29T07:10:22.837Z" agent="5.0 (Macintosh; Intel Mac OS X 10_13_6) AppleWebKit/537.36 (KHTML, like Gecko) Chrome/90.0.4430.212 Safari/537.36" etag="W20OTfxr-bkzSbWI6dlm" version="14.5.1" type="github">
  <diagram id="5W8Z2c0lp4-xo4qdID_U" name="Page-1">
    <mxGraphModel dx="946" dy="525" grid="1" gridSize="10" guides="1" tooltips="1" connect="1" arrows="1" fold="1" page="1" pageScale="1" pageWidth="827" pageHeight="1169" math="0" shadow="0">
      <root>
        <mxCell id="0" />
        <mxCell id="1" parent="0" />
        <mxCell id="eQ_oer7HiwtSxNQtR6KQ-12" value="" style="edgeStyle=orthogonalEdgeStyle;rounded=0;orthogonalLoop=1;jettySize=auto;html=1;" edge="1" parent="1" source="eQ_oer7HiwtSxNQtR6KQ-1" target="eQ_oer7HiwtSxNQtR6KQ-2">
          <mxGeometry relative="1" as="geometry" />
        </mxCell>
        <mxCell id="eQ_oer7HiwtSxNQtR6KQ-1" value="socket()" style="rounded=0;whiteSpace=wrap;html=1;fillColor=#d5e8d4;strokeColor=#82b366;" vertex="1" parent="1">
          <mxGeometry x="100" y="80" width="80" height="30" as="geometry" />
        </mxCell>
        <mxCell id="eQ_oer7HiwtSxNQtR6KQ-13" value="" style="edgeStyle=orthogonalEdgeStyle;rounded=0;orthogonalLoop=1;jettySize=auto;html=1;" edge="1" parent="1" source="eQ_oer7HiwtSxNQtR6KQ-2" target="eQ_oer7HiwtSxNQtR6KQ-3">
          <mxGeometry relative="1" as="geometry" />
        </mxCell>
        <mxCell id="eQ_oer7HiwtSxNQtR6KQ-24" value="" style="rounded=0;orthogonalLoop=1;jettySize=auto;html=1;entryX=0;entryY=0.5;entryDx=0;entryDy=0;exitX=1;exitY=0.5;exitDx=0;exitDy=0;" edge="1" parent="1" source="eQ_oer7HiwtSxNQtR6KQ-2" target="eQ_oer7HiwtSxNQtR6KQ-8">
          <mxGeometry relative="1" as="geometry" />
        </mxCell>
        <mxCell id="eQ_oer7HiwtSxNQtR6KQ-2" value="connect()" style="rounded=0;whiteSpace=wrap;html=1;fillColor=#d5e8d4;strokeColor=#82b366;" vertex="1" parent="1">
          <mxGeometry x="100" y="160" width="80" height="30" as="geometry" />
        </mxCell>
        <mxCell id="eQ_oer7HiwtSxNQtR6KQ-14" value="" style="edgeStyle=orthogonalEdgeStyle;rounded=0;orthogonalLoop=1;jettySize=auto;html=1;" edge="1" parent="1" source="eQ_oer7HiwtSxNQtR6KQ-3" target="eQ_oer7HiwtSxNQtR6KQ-4">
          <mxGeometry relative="1" as="geometry" />
        </mxCell>
        <mxCell id="eQ_oer7HiwtSxNQtR6KQ-25" value="" style="edgeStyle=none;rounded=0;orthogonalLoop=1;jettySize=auto;html=1;entryX=0;entryY=0.5;entryDx=0;entryDy=0;exitX=1;exitY=0.5;exitDx=0;exitDy=0;" edge="1" parent="1" source="eQ_oer7HiwtSxNQtR6KQ-3" target="eQ_oer7HiwtSxNQtR6KQ-9">
          <mxGeometry relative="1" as="geometry" />
        </mxCell>
        <mxCell id="eQ_oer7HiwtSxNQtR6KQ-3" value="write()" style="rounded=0;whiteSpace=wrap;html=1;fillColor=#d5e8d4;strokeColor=#82b366;" vertex="1" parent="1">
          <mxGeometry x="100" y="240" width="80" height="30" as="geometry" />
        </mxCell>
        <mxCell id="eQ_oer7HiwtSxNQtR6KQ-4" value="read()" style="rounded=0;whiteSpace=wrap;html=1;fillColor=#d5e8d4;strokeColor=#82b366;" vertex="1" parent="1">
          <mxGeometry x="100" y="320" width="80" height="30" as="geometry" />
        </mxCell>
        <mxCell id="eQ_oer7HiwtSxNQtR6KQ-19" value="" style="edgeStyle=orthogonalEdgeStyle;rounded=0;orthogonalLoop=1;jettySize=auto;html=1;entryX=0.5;entryY=0;entryDx=0;entryDy=0;" edge="1" parent="1" source="eQ_oer7HiwtSxNQtR6KQ-5" target="eQ_oer7HiwtSxNQtR6KQ-6">
          <mxGeometry relative="1" as="geometry" />
        </mxCell>
        <mxCell id="eQ_oer7HiwtSxNQtR6KQ-5" value="socket()" style="rounded=0;whiteSpace=wrap;html=1;fillColor=#e1d5e7;strokeColor=#9673a6;" vertex="1" parent="1">
          <mxGeometry x="280" y="80" width="80" height="30" as="geometry" />
        </mxCell>
        <mxCell id="eQ_oer7HiwtSxNQtR6KQ-20" value="" style="edgeStyle=orthogonalEdgeStyle;rounded=0;orthogonalLoop=1;jettySize=auto;html=1;entryX=0.5;entryY=0;entryDx=0;entryDy=0;" edge="1" parent="1" source="eQ_oer7HiwtSxNQtR6KQ-6" target="eQ_oer7HiwtSxNQtR6KQ-7">
          <mxGeometry relative="1" as="geometry" />
        </mxCell>
        <mxCell id="eQ_oer7HiwtSxNQtR6KQ-6" value="bind()" style="rounded=0;whiteSpace=wrap;html=1;fillColor=#e1d5e7;strokeColor=#9673a6;" vertex="1" parent="1">
          <mxGeometry x="280" y="140" width="80" height="30" as="geometry" />
        </mxCell>
        <mxCell id="eQ_oer7HiwtSxNQtR6KQ-21" value="" style="edgeStyle=orthogonalEdgeStyle;rounded=0;orthogonalLoop=1;jettySize=auto;html=1;entryX=0.5;entryY=0;entryDx=0;entryDy=0;" edge="1" parent="1" source="eQ_oer7HiwtSxNQtR6KQ-7" target="eQ_oer7HiwtSxNQtR6KQ-8">
          <mxGeometry relative="1" as="geometry" />
        </mxCell>
        <mxCell id="eQ_oer7HiwtSxNQtR6KQ-7" value="listen()" style="rounded=0;whiteSpace=wrap;html=1;fillColor=#e1d5e7;strokeColor=#9673a6;" vertex="1" parent="1">
          <mxGeometry x="280" y="200" width="80" height="30" as="geometry" />
        </mxCell>
        <mxCell id="eQ_oer7HiwtSxNQtR6KQ-22" value="" style="edgeStyle=orthogonalEdgeStyle;rounded=0;orthogonalLoop=1;jettySize=auto;html=1;entryX=0.5;entryY=0;entryDx=0;entryDy=0;" edge="1" parent="1" source="eQ_oer7HiwtSxNQtR6KQ-8" target="eQ_oer7HiwtSxNQtR6KQ-9">
          <mxGeometry relative="1" as="geometry">
            <mxPoint x="320" y="330" as="targetPoint" />
          </mxGeometry>
        </mxCell>
        <mxCell id="eQ_oer7HiwtSxNQtR6KQ-8" value="accept()" style="rounded=0;whiteSpace=wrap;html=1;fillColor=#e1d5e7;strokeColor=#9673a6;" vertex="1" parent="1">
          <mxGeometry x="280" y="260" width="80" height="30" as="geometry" />
        </mxCell>
        <mxCell id="eQ_oer7HiwtSxNQtR6KQ-23" value="" style="edgeStyle=orthogonalEdgeStyle;rounded=0;orthogonalLoop=1;jettySize=auto;html=1;" edge="1" parent="1" source="eQ_oer7HiwtSxNQtR6KQ-9" target="eQ_oer7HiwtSxNQtR6KQ-10">
          <mxGeometry relative="1" as="geometry" />
        </mxCell>
        <mxCell id="eQ_oer7HiwtSxNQtR6KQ-9" value="read()" style="rounded=0;whiteSpace=wrap;html=1;fillColor=#e1d5e7;strokeColor=#9673a6;" vertex="1" parent="1">
          <mxGeometry x="280" y="320" width="80" height="30" as="geometry" />
        </mxCell>
        <mxCell id="eQ_oer7HiwtSxNQtR6KQ-26" style="edgeStyle=none;rounded=0;orthogonalLoop=1;jettySize=auto;html=1;exitX=0;exitY=0.5;exitDx=0;exitDy=0;entryX=1;entryY=0.5;entryDx=0;entryDy=0;" edge="1" parent="1" source="eQ_oer7HiwtSxNQtR6KQ-10" target="eQ_oer7HiwtSxNQtR6KQ-4">
          <mxGeometry relative="1" as="geometry" />
        </mxCell>
        <mxCell id="eQ_oer7HiwtSxNQtR6KQ-10" value="write()" style="rounded=0;whiteSpace=wrap;html=1;fillColor=#e1d5e7;strokeColor=#9673a6;" vertex="1" parent="1">
          <mxGeometry x="280" y="380" width="80" height="30" as="geometry" />
        </mxCell>
        <mxCell id="eQ_oer7HiwtSxNQtR6KQ-27" value="&lt;font style=&quot;font-size: 18px&quot;&gt;客户端&lt;/font&gt;" style="text;html=1;strokeColor=none;fillColor=none;align=center;verticalAlign=middle;whiteSpace=wrap;rounded=0;" vertex="1" parent="1">
          <mxGeometry x="100" y="50" width="70" height="20" as="geometry" />
        </mxCell>
        <mxCell id="eQ_oer7HiwtSxNQtR6KQ-28" value="&lt;font style=&quot;font-size: 18px&quot;&gt;服务端&lt;/font&gt;" style="text;html=1;strokeColor=none;fillColor=none;align=center;verticalAlign=middle;whiteSpace=wrap;rounded=0;" vertex="1" parent="1">
          <mxGeometry x="280" y="50" width="70" height="20" as="geometry" />
        </mxCell>
      </root>
    </mxGraphModel>
  </diagram>
</mxfile>
